<svg width="83" height="44" viewBox="0 0 83 44" fill="none" xmlns="http://www.w3.org/2000/svg">
<ellipse cx="3.15399" cy="3.1431" rx="3.15399" ry="3.14286" fill="#EE3D48"/>
<ellipse cx="3.15399" cy="12.5716" rx="3.15399" ry="3.14286" fill="#EE3D48"/>
<ellipse cx="3.15399" cy="22" rx="3.15399" ry="3.14286" fill="#EE3D48"/>
<ellipse cx="3.15399" cy="31.4285" rx="3.15399" ry="3.14286" fill="#EE3D48"/>
<ellipse cx="3.15399" cy="40.8572" rx="3.15399" ry="3.14286" fill="#EE3D48"/>
<ellipse cx="12.6159" cy="3.14286" rx="3.15399" ry="3.14286" fill="#EE3D48"/>
<ellipse cx="12.6159" cy="12.5716" rx="3.15399" ry="3.14286" fill="#EE3D48"/>
<ellipse cx="12.6159" cy="22" rx="3.15399" ry="3.14286" fill="#EE3D48"/>
<ellipse cx="12.6159" cy="31.4285" rx="3.15399" ry="3.14286" fill="#EE3D48"/>
<ellipse cx="12.6159" cy="40.8572" rx="3.15399" ry="3.14286" fill="#EE3D48"/>
<ellipse cx="22.0778" cy="3.14286" rx="3.15399" ry="3.14286" fill="#EE3D48"/>
<ellipse cx="22.0778" cy="12.5716" rx="3.15399" ry="3.14286" fill="#EE3D48"/>
<ellipse cx="22.0778" cy="22" rx="3.15399" ry="3.14286" fill="#EE3D48"/>
<ellipse cx="22.0778" cy="31.4285" rx="3.15399" ry="3.14286" fill="#EE3D48"/>
<ellipse cx="22.0778" cy="40.8572" rx="3.15399" ry="3.14286" fill="#EE3D48"/>
<ellipse cx="31.54" cy="3.14286" rx="3.15399" ry="3.14286" fill="#EE3D48"/>
<ellipse cx="31.54" cy="12.5716" rx="3.15399" ry="3.14286" fill="#EE3D48"/>
<ellipse cx="31.54" cy="22" rx="3.15399" ry="3.14286" fill="#EE3D48"/>
<ellipse cx="31.54" cy="31.4285" rx="3.15399" ry="3.14286" fill="#EE3D48"/>
<ellipse cx="31.54" cy="40.8572" rx="3.15399" ry="3.14286" fill="#EE3D48"/>
<ellipse cx="41.0019" cy="3.14286" rx="3.15399" ry="3.14286" fill="#EE3D48"/>
<ellipse cx="50.4638" cy="3.14286" rx="3.15399" ry="3.14286" fill="#EE3D48"/>
<ellipse cx="59.9257" cy="3.14286" rx="3.15399" ry="3.14286" fill="#EE3D48"/>
<ellipse cx="69.3879" cy="3.14286" rx="3.15399" ry="3.14286" fill="#EE3D48"/>
<ellipse cx="78.8498" cy="3.14286" rx="3.15399" ry="3.14286" fill="#EE3D48"/>
<ellipse cx="41.0019" cy="12.5716" rx="3.15399" ry="3.14286" fill="#EE3D48"/>
<ellipse cx="50.4638" cy="12.5716" rx="3.15399" ry="3.14286" fill="#EE3D48"/>
<ellipse cx="59.9257" cy="12.5716" rx="3.15399" ry="3.14286" fill="#EE3D48"/>
<ellipse cx="69.3879" cy="12.5716" rx="3.15399" ry="3.14286" fill="#EE3D48"/>
<ellipse cx="78.8498" cy="12.5716" rx="3.15399" ry="3.14286" fill="#EE3D48"/>
<ellipse cx="41.0019" cy="22" rx="3.15399" ry="3.14286" fill="#EE3D48"/>
<ellipse cx="50.4638" cy="22" rx="3.15399" ry="3.14286" fill="#EE3D48"/>
<ellipse cx="59.9257" cy="22" rx="3.15399" ry="3.14286" fill="#EE3D48"/>
<ellipse cx="69.3879" cy="22" rx="3.15399" ry="3.14286" fill="#EE3D48"/>
<ellipse cx="78.8498" cy="22" rx="3.15399" ry="3.14286" fill="#EE3D48"/>
<ellipse cx="41.0019" cy="31.4285" rx="3.15399" ry="3.14286" fill="#EE3D48"/>
<ellipse cx="50.4638" cy="31.4285" rx="3.15399" ry="3.14286" fill="#EE3D48"/>
<ellipse cx="59.9257" cy="31.4285" rx="3.15399" ry="3.14286" fill="#EE3D48"/>
<ellipse cx="69.3879" cy="31.4285" rx="3.15399" ry="3.14286" fill="#EE3D48"/>
<ellipse cx="78.8498" cy="31.4285" rx="3.15399" ry="3.14286" fill="#EE3D48"/>
<ellipse cx="41.0019" cy="40.8572" rx="3.15399" ry="3.14286" fill="#EE3D48"/>
<ellipse cx="50.4638" cy="40.8572" rx="3.15399" ry="3.14286" fill="#EE3D48"/>
<ellipse cx="59.9257" cy="40.8572" rx="3.15399" ry="3.14286" fill="#EE3D48"/>
<ellipse cx="69.3879" cy="40.8572" rx="3.15399" ry="3.14286" fill="#EE3D48"/>
<ellipse cx="78.8498" cy="40.8572" rx="3.15399" ry="3.14286" fill="#EE3D48"/>
</svg>
