<svg width="48" height="48" viewBox="0 0 48 48" fill="none" xmlns="http://www.w3.org/2000/svg">
<path d="M4.5 7.5V31.5H9.89063L9.75 33L11.25 33.1406L14.6719 33.5156L14.4375 34.8281L14.1563 36.2813L15.6094 36.5625L39.1875 41.0625L40.6406 41.3438L40.9219 39.8906L44.9531 19.1719L45.2813 17.7188L43.7813 17.4375L38.7188 16.4531L39 13.5L39.1406 12.0469L37.6875 11.8594L31.5 11.1094V7.50001L4.5 7.5ZM7.5 10.5H28.5V28.5H7.5V10.5ZM18 13.5C15.5332 13.5 13.5 15.5332 13.5 18C13.5 19.0078 13.8223 19.9629 14.3906 20.7188C12.9375 21.8145 12 23.5371 12 25.5H15C15 23.7129 16.2129 22.5 18 22.5C19.7871 22.5 21 23.7129 21 25.5H24C24 23.5371 23.0625 21.8145 21.6094 20.7188C22.1777 19.9629 22.5 19.0078 22.5 18C22.5 15.5332 20.4668 13.5 18 13.5ZM31.5 14.1094L35.8594 14.6719L34.0313 32.5313L24.4219 31.5H31.5V14.1094ZM18 16.5C18.8438 16.5 19.5 17.1562 19.5 18C19.5 18.8438 18.8438 19.5 18 19.5C17.1562 19.5 16.5 18.8438 16.5 18C16.5 17.1562 17.1562 16.5 18 16.5ZM38.3906 19.4531L41.7656 20.1094L38.25 37.8281L17.6719 33.8906V33.7969L35.25 35.6719L36.75 35.8594L36.8906 34.3594L38.3906 19.4531Z" fill="#EE3D48"/>
</svg>
