<svg width="48" height="48" viewBox="0 0 48 48" fill="none" xmlns="http://www.w3.org/2000/svg">
<path d="M13.5 13.5C7.71679 13.5 3 18.2168 3 24C3 29.7891 7.71094 34.5 13.5 34.5C17.8945 34.5 20.5781 32.0859 22.6406 29.1094C22.0254 28.1191 21.5098 27.1406 21 26.2031C19.1602 29.2441 17.0977 31.5 13.5 31.5C9.36328 31.5 6 28.1367 6 24C6 19.8398 9.33985 16.5 13.5 16.5C15.9258 16.5 17.4668 17.3672 18.8906 18.8438C20.3145 20.3203 21.5156 22.4531 22.7344 24.7031C23.9531 26.9531 25.1895 29.3203 27 31.2188C28.8105 33.1172 31.3066 34.5 34.5 34.5C40.2832 34.5 45 29.7832 45 24C45 18.2109 40.2891 13.5 34.5 13.5C30.1289 13.5 27.4277 15.8379 25.3594 18.75C25.9746 19.7227 26.5371 20.6777 27.0469 21.6094C28.875 18.6563 30.9141 16.5 34.5 16.5C38.6367 16.5 42 19.8633 42 24C42 28.1602 38.6602 31.5 34.5 31.5C32.1152 31.5 30.6152 30.6328 29.2031 29.1563C27.791 27.6797 26.584 25.5469 25.3594 23.2969C24.1348 21.0469 22.875 18.6797 21.0469 16.7812C19.2188 14.8828 16.7227 13.5 13.5 13.5H13.5Z" fill="#EE3D48"/>
</svg>
